# xmcd
#
# Track frame offsets: 
#        150
#        28118
#        45768
#        60444
#        78270
#        97815
#        129262
#        145582
#        168400
#        195043
#        213032
#        233369
#        258703
#
# Disc length: 3757 seconds
#
# Revision: 0
# Processed by: cddbd v1.5.2PL0 Copyright (c) Steve Scherf et al.
# Submitted via: ExactAudioCopyFreeDBPlugin 1.0
#
DISCID=8d0eab0d
DTITLE=The Resentments - Welcome To Our Living Room - Live At The Lab 
DTITLE=In Stuttgart
DYEAR=2006
DGENRE=Americana
TTITLE0=Teach Me How To Stay
TTITLE1=You And Your Lady
TTITLE2=Stax
TTITLE3=Swept Away
TTITLE4=Getting Over You
TTITLE5=She Gives Me Religion
TTITLE6=Too Much Monkey Business
TTITLE7=Tip Me Over
TTITLE8=Volver
TTITLE9=I Do My Drinking On The Weekends
TTITLE10=Gwendolyn
TTITLE11=Several Thousand
TTITLE12=Big Sweet Life
EXTD=
EXTT0=
EXTT1=
EXTT2=
EXTT3=
EXTT4=
EXTT5=
EXTT6=
EXTT7=
EXTT8=
EXTT9=
EXTT10=
EXTT11=
EXTT12=
PLAYORDER=
